Coordinates
version=1
nRows=8
nColumns=40
inDegrees=yes

Units are S.I. units (second, meters, Newtons, ...)
If the header above contains a line with 'inDegrees', this indicates whether rotational values are in degrees (yes) or radians (no).

endheader
time	pelvis_tilt	pelvis_list	pelvis_rotation	pelvis_tx	pelvis_ty	pelvis_tz	hip_flexion_r	hip_adduction_r	hip_rotation_r	knee_angle_r	knee_angle_r_beta	ankle_angle_r	subtalar_angle_r	mtp_angle_r	hip_flexion_l	hip_adduction_l	hip_rotation_l	knee_angle_l	knee_angle_l_beta	ankle_angle_l	subtalar_angle_l	mtp_angle_l	lumbar_extension	lumbar_bending	lumbar_rotation	arm_flex_r	arm_add_r	arm_rot_r	elbow_flex_r	pro_sup_r	wrist_flex_r	wrist_dev_r	arm_flex_l	arm_add_l	arm_rot_l	elbow_flex_l	pro_sup_l	wrist_flex_l	wrist_dev_l
      3.87500000	     -4.21625340	      4.04461791	      4.68512841	     -0.33843802	      1.02065123	     -0.78612583	     26.34347014	     -4.92353931	    -11.94258923	     42.92540936	      0.74918973	     10.35179173	      0.00000000	      0.00000000	     20.77705893	     -6.79353655	     -6.27119862	     96.20105681	      1.67902519	    -22.01348437	      0.00000000	      0.00000000	     -5.72360001	      2.65531659	      2.79048551	     89.94526792	    -17.29547218	     23.38608424	     38.00453042	     81.29737963	      0.00000000	      0.00000000	     89.94752965	     -6.06458772	     26.13408018	     40.21147319	     82.96415351	      0.00000000	      0.00000000
      3.88000000	     -4.21326448	      4.05892271	      4.66931265	     -0.33844914	      1.02017294	     -0.78621337	     26.41239544	     -4.94920541	    -11.89583922	     43.08835881	      0.75203373	     10.48896773	      0.00000000	      0.00000000	     20.76261300	     -6.73502302	     -6.26588987	     96.22960906	      1.67952352	    -22.03808745	      0.00000000	      0.00000000	     -5.75767500	      2.64128491	      2.78030794	     89.94545575	    -17.24807214	     23.30371041	     38.00367576	     81.46399143	      0.00000000	      0.00000000	     89.94753404	     -6.10098061	     26.09971929	     40.23665614	     83.01070592	      0.00000000	      0.00000000
      3.88500000	     -4.25704975	      4.02594695	      4.66138134	     -0.33854107	      1.01970033	     -0.78627923	     26.53783076	     -4.92914696	    -11.88321161	     43.23530496	      0.75459842	     10.53938386	      0.00000000	      0.00000000	     20.81443789	     -6.74516068	     -6.26345780	     96.26387510	      1.68012157	    -22.06070970	      0.00000000	      0.00000000	     -5.75189693	      2.67388392	      2.78730270	     89.94538850	    -17.25262000	     23.29251556	     38.01716508	     81.57389889	      0.00000000	      0.00000000	     89.94766456	     -6.12157734	     26.11896168	     40.27172866	     82.95553251	      0.00000000	      0.00000000
      3.89000000	     -4.28711954	      3.96186632	      4.66537745	     -0.33860675	      1.01920894	     -0.78635479	     26.64185354	     -4.87142570	    -11.85469851	     43.37788396	      0.75708690	     10.61868771	      0.00000000	      0.00000000	     20.86139871	     -6.76191265	     -6.20986409	     96.31527084	      1.68101860	    -22.11107217	      0.00000000	      0.00000000	     -5.75073181	      2.74737144	      2.78029550	     89.94538815	    -17.22748016	     23.18834194	     38.05542147	     81.75821302	      0.00000000	      0.00000000	     89.94763890	     -6.13970681	     26.12863245	     40.23645933	     82.92503880	      0.00000000	      0.00000000
      3.89500000	     -4.43064289	      3.97617113	      4.64304099	     -0.33909358	      1.01878297	     -0.78652280	     26.89682509	     -4.89368401	    -11.74821338	     43.49652018	      0.75915749	     10.59536031	      0.00000000	      0.00000000	     21.06303850	     -6.66399380	     -6.19674066	     96.36352171	      1.68186073	    -22.15641524	      0.00000000	      0.00000000	     -5.67585513	      2.74057183	      2.80916561	     89.94544662	    -17.20813981	     23.12339166	     38.10667321	     81.75802946	      0.00000000	      0.00000000	     89.94767220	     -6.13929830	     26.05322477	     40.28505549	     82.99410623	      0.00000000	      0.00000000
      3.90000000	     -4.50159813	      4.00754039	      4.63031173	     -0.33920868	      1.01821896	     -0.78664608	     27.06812648	     -4.93287309	    -11.66918161	     43.68029823	      0.76236502	     10.68913228	      0.00000000	      0.00000000	     21.13946754	     -6.56731770	     -6.18654381	     96.38809304	      1.68228958	    -22.12834746	      0.00000000	      0.00000000	     -5.64221554	      2.69787388	      2.81347279	     89.94553412	    -17.19350437	     23.09173838	     38.12200612	     81.73720184	      0.00000000	      0.00000000	     89.94780562	     -6.15069319	     26.07398929	     40.28314968	     83.00884608	      0.00000000	      0.00000000
      3.90500000	     -4.52862057	      4.00706946	      4.62464601	     -0.33928738	      1.01774698	     -0.78671911	     27.16852161	     -4.92725690	    -11.60010102	     43.82155346	      0.76483039	     10.78350647	      0.00000000	      0.00000000	     21.17496908	     -6.52148892	     -6.15962502	     96.44420349	      1.68326890	    -22.14422964	      0.00000000	      0.00000000	     -5.64519673	      2.69225668	      2.84039416	     89.94559934	    -17.19932352	     23.10321856	     38.11047368	     81.62497976	      0.00000000	      0.00000000	     89.94776413	     -6.10852510	     26.04710883	     40.24551604	     82.95427158	      0.00000000	      0.00000000
      3.91000000	     -4.51482104	      3.96592538	      4.65515984	     -0.33910909	      1.01715714	     -0.78683257	     27.20012870	     -4.90520125	    -11.62525932	     43.96238198	      0.76728831	     10.94443146	      0.00000000	      0.00000000	     21.14484496	     -6.52750266	     -6.09787085	     96.48650765	      1.68400724	    -22.10061401	      0.00000000	      0.00000000	     -5.66611353	      2.73837914	      2.81891002	     89.94563596	    -17.21002060	     23.09884972	     38.12262251	     81.55351908	      0.00000000	      0.00000000	     89.94795032	     -6.10299541	     26.01773610	     40.23000892	     83.04426678	      0.00000000	      0.00000000
